<svg width="17" height="18" viewBox="0 0 17 18" fill="none" xmlns="http://www.w3.org/2000/svg">
<path d="M6.01176 10.6883C6.25036 10.9838 6.50108 11.2731 6.76392 11.5563C6.93488 11.7463 7.10901 11.9309 7.28631 12.1103L16.3489 2.2952L15 1L6.01176 10.6883Z" fill="white"/>
<path d="M6.02735 13.4738C5.85331 13.2955 5.68147 13.112 5.51184 12.9235C5.25087 12.6336 5.00066 12.3378 4.76123 12.0363L0.5 16.6294L1.90668 17.9367L6.02735 13.4738Z" fill="white"/>
<path fill-rule="evenodd" clip-rule="evenodd" d="M15.6365 17.9367C13.8375 17.9367 12.0601 17.5009 10.3043 16.6294C9.00577 15.9849 7.79382 15.1414 6.66847 14.0989L7.92627 12.7225C8.00597 12.7945 8.08625 12.8655 8.16713 12.9355C8.65645 13.3593 9.17455 13.7471 9.72144 14.0989L11.7507 11.8441C11.8802 11.7002 12.0493 11.5923 12.258 11.5203C12.4667 11.4484 12.6718 11.4284 12.8733 11.4604L15.8524 12.132C16.0538 12.1959 16.2193 12.3119 16.3489 12.4798C16.4784 12.6477 16.5432 12.8356 16.5432 13.0435V16.9293C16.5432 17.2171 16.4568 17.457 16.2841 17.6488C16.1114 17.8407 15.8955 17.9367 15.6365 17.9367ZM7.28631 12.1103C7.10901 11.9309 6.93488 11.7463 6.76392 11.5563C6.50108 11.2731 6.25036 10.9838 6.01176 10.6883L4.76123 12.0363C5.00066 12.3378 5.25087 12.6336 5.51184 12.9235C5.68147 13.112 5.85331 13.2955 6.02735 13.4738L7.28631 12.1103ZM5.45787 9.96122L4.22522 11.3266C3.3916 10.1649 2.7087 8.92221 2.17653 7.59856C1.39218 5.64767 1 3.67279 1 1.67393C1 1.38609 1.08635 1.14623 1.25905 0.95434C1.43175 0.762449 1.64763 0.666504 1.90668 0.666504H5.4039C5.60538 0.666504 5.78528 0.742461 5.94359 0.894374C6.1019 1.04629 6.19545 1.22619 6.22423 1.43407L6.78551 4.79216C6.81429 5.04801 6.8071 5.26389 6.76392 5.43979C6.72075 5.61569 6.64159 5.7676 6.52646 5.89553L4.43245 8.24619C4.72028 8.83786 5.06209 9.40953 5.45787 9.96122Z" fill="white"/>
</svg>
