<svg width="19" height="19" viewBox="0 0 19 19" fill="none" xmlns="http://www.w3.org/2000/svg">
<path d="M16.95 18.3999C14.8667 18.3999 12.8083 17.9457 10.775 17.0374C8.74167 16.1291 6.89167 14.8416 5.225 13.1749C3.55833 11.5082 2.27083 9.65824 1.3625 7.6249C0.454167 5.59157 0 3.53324 0 1.4499C0 1.1499 0.1 0.899902 0.3 0.699902C0.5 0.499902 0.75 0.399902 1.05 0.399902H5.1C5.33333 0.399902 5.54167 0.479069 5.725 0.637402C5.90833 0.795736 6.01667 0.983236 6.05 1.1999L6.7 4.6999C6.73333 4.96657 6.725 5.19157 6.675 5.3749C6.625 5.55824 6.53333 5.71657 6.4 5.8499L3.975 8.2999C4.30833 8.91657 4.70417 9.5124 5.1625 10.0874C5.62083 10.6624 6.125 11.2166 6.675 11.7499C7.19167 12.2666 7.73333 12.7457 8.3 13.1874C8.86667 13.6291 9.46667 14.0332 10.1 14.3999L12.45 12.0499C12.6 11.8999 12.7958 11.7874 13.0375 11.7124C13.2792 11.6374 13.5167 11.6166 13.75 11.6499L17.2 12.3499C17.4333 12.4166 17.625 12.5374 17.775 12.7124C17.925 12.8874 18 13.0832 18 13.2999V17.3499C18 17.6499 17.9 17.8999 17.7 18.0999C17.5 18.2999 17.25 18.3999 16.95 18.3999ZM3.025 6.3999L4.675 4.7499L4.25 2.3999H2.025C2.10833 3.08324 2.225 3.75824 2.375 4.4249C2.525 5.09157 2.74167 5.7499 3.025 6.3999ZM11.975 15.3499C12.625 15.6332 13.2875 15.8582 13.9625 16.0249C14.6375 16.1916 15.3167 16.2999 16 16.3499V14.1499L13.65 13.6749L11.975 15.3499Z" fill="#63FF2D"/>
<path d="M18.4004 5.9999V-9.82285e-05H12.4004V1.9999H15.0004L10.0004 6.9999L11.4004 8.3999L16.4004 3.3999V5.9999H18.4004Z" fill="#63FF2D"/>
</svg>
