<svg width="31" height="12" viewBox="0 0 31 12" fill="none" xmlns="http://www.w3.org/2000/svg">
<path d="M0.909759 5.60733C2.71537 3.81195 4.89071 2.43173 7.43577 1.46669C9.98083 0.501642 12.6938 0.0232108 15.5746 0.0313953C18.4553 0.0395792 21.1655 0.533416 23.7051 1.51291C26.2446 2.4924 28.4121 3.88495 30.2074 5.69056C30.466 5.95057 30.5947 6.25342 30.5938 6.59911C30.5928 6.94481 30.4623 7.24692 30.2023 7.50546L26.6922 10.9957C26.4899 11.1968 26.2412 11.3077 25.9458 11.3285C25.6505 11.3492 25.395 11.2801 25.1794 11.121L21.5998 8.64775C21.3411 8.44536 21.1544 8.24317 21.0398 8.04119C20.9251 7.83921 20.8681 7.62298 20.8688 7.39252L20.8591 3.1793C20.0388 2.9321 19.1822 2.75681 18.2895 2.65345C17.3967 2.55008 16.4822 2.50427 15.5459 2.51602C14.6528 2.51348 13.7704 2.56499 12.8987 2.67054C12.027 2.7761 11.1586 2.94288 10.2937 3.17089L10.2822 7.23281C10.2815 7.49208 10.2087 7.75835 10.0639 8.03161C9.91905 8.30488 9.73117 8.52761 9.50021 8.6998L5.90687 11.0663C5.64719 11.2096 5.37694 11.27 5.09613 11.2476C4.81531 11.2252 4.58154 11.1201 4.39482 10.9323L0.904603 7.42223C0.646068 7.16222 0.517292 6.85937 0.518274 6.51367C0.519257 6.16798 0.649751 5.86586 0.909759 5.60733Z" fill="white"/>
</svg>
