<svg width="33" height="30" viewBox="0 0 33 30" fill="none" xmlns="http://www.w3.org/2000/svg">
<path d="M18 30C26.2843 30 33 23.2843 33 15C33 6.71573 26.2843 0 18 0L14 0V30H18Z" fill="#E38E0F"/>
<circle cx="15" cy="15" r="15" fill="#FFB800"/>
<circle cx="15" cy="15" r="11.25" fill="#FFD874"/>
<path d="M11.0212 20.4898C10.716 20.45 10.371 20.4102 10.2118 20.105C9.98618 19.6539 9.99945 19.07 10.026 18.4862V11.7454C9.94637 11.2147 10.0393 10.3389 10.4506 10.1664C10.9681 10.0204 11.5519 10.0337 12.1491 10.0072C12.5737 9.95408 12.7594 10.2062 12.8523 10.4318C13.0248 11.1085 13.3035 11.825 13.5954 12.5416C13.9006 13.2714 14.1925 13.9481 14.4977 14.9433L14.6039 14.9698C15.0152 14.0543 15.3204 13.3112 15.6123 12.5814C15.9175 11.8781 16.09 11.1881 16.3687 10.4583C16.4085 10.2991 16.5279 10.0868 16.9127 10.0337C17.3639 10.0602 17.9875 10.0072 18.3989 10.0337C18.8102 10.0868 19.2215 10.3389 19.2481 10.7768C19.3277 11.4535 19.3144 11.8516 19.341 12.5681C19.394 13.3377 19.394 14.1206 19.394 19.6273C19.4073 20.0254 19.3144 20.3306 19.049 20.4235C18.5979 20.4898 18.1467 20.5164 17.4567 20.4898C17.0056 20.4898 16.8596 20.3969 16.78 20.0519C16.6871 19.2823 16.7402 17.8493 16.6871 16.655C16.4085 17.2654 15.8777 18.6587 15.4531 19.1364C15.0019 19.3752 14.6835 19.4681 14.4446 19.3752C14.166 19.3885 14.0731 19.2558 13.7148 19.0037C13.3167 18.5791 12.8656 17.5839 12.6135 16.9071C12.6002 17.4114 12.6135 18.7383 12.6135 19.1762C12.6798 19.9458 12.4941 20.4633 12.2287 20.4766L11.0212 20.4898ZM11.9766 19.8131C12.1093 19.216 12.0164 18.2606 12.0429 17.5175V15.1158C12.0827 14.8239 12.3348 14.7708 12.5206 14.8371C12.6798 15.2618 12.8391 16.1906 13.1044 16.7346C13.4229 17.2787 13.7281 18.1279 14.1792 18.4862C14.4446 18.6189 14.6835 18.6454 14.9621 18.5393C15.546 17.9421 15.7185 17.1991 16.0104 16.602C16.2758 16.0712 16.5014 15.5139 16.6871 14.8637C16.8066 14.7177 16.9525 14.6646 17.0852 14.8504C17.2444 15.421 17.2444 15.8456 17.271 16.4427C17.271 16.4427 17.2842 19.4814 17.4037 19.8396C17.7354 19.9193 18.3192 19.9193 18.6377 19.7998C18.7571 19.4416 18.704 13.4306 18.704 12.807C18.651 12.17 18.704 11.5198 18.5846 10.8431C18.1733 10.6441 17.3108 10.6175 16.926 10.7502C16.6606 11.7189 16.3554 12.5416 16.0104 13.3643C15.6787 14.2002 15.2673 15.0229 14.7764 15.7793C14.5641 15.8987 14.3916 15.8854 14.2589 15.7925C14.02 15.5404 13.9802 15.3016 13.8475 15.0096C13.5954 14.3462 13.33 13.6562 13.0646 12.9397C12.7594 12.2497 12.5073 11.5729 12.3481 10.8033C11.9633 10.6308 11.3794 10.6573 10.7691 10.8033C10.5966 11.2677 10.6364 11.8118 10.5966 12.2231L10.7293 19.1231C10.7293 19.3619 10.7823 19.5875 10.9018 19.76C11.1008 19.9591 11.5918 20.0121 11.9766 19.8131Z" fill="#E38E0F"/>
<path d="M11.9766 19.8131C12.1093 19.216 12.0164 18.2606 12.0429 17.5175V15.1158C12.0827 14.8239 12.3348 14.7708 12.5206 14.8371C12.6798 15.2618 12.8391 16.1906 13.1044 16.7346C13.4229 17.2787 13.7281 18.1279 14.1792 18.4862C14.4446 18.6189 14.6835 18.6454 14.9621 18.5393C15.546 17.9421 15.7185 17.1991 16.0104 16.602C16.2758 16.0712 16.5014 15.5139 16.6871 14.8637C16.8066 14.7177 16.9525 14.6646 17.0852 14.8504C17.2444 15.421 17.2444 15.8456 17.271 16.4427C17.271 16.4427 17.2842 19.4814 17.4037 19.8396C17.7354 19.9193 18.3192 19.9193 18.6377 19.7998C18.7571 19.4416 18.704 13.4306 18.704 12.807C18.651 12.17 18.704 11.5198 18.5846 10.8431C18.1733 10.6441 17.3108 10.6175 16.926 10.7502C16.6606 11.7189 16.3554 12.5416 16.0104 13.3643C15.6787 14.2002 15.2673 15.0229 14.7764 15.7793C14.5641 15.8987 14.3916 15.8854 14.2589 15.7925C14.02 15.5404 13.9802 15.3016 13.8475 15.0096C13.5954 14.3462 13.33 13.6562 13.0646 12.9397C12.7594 12.2497 12.5073 11.5729 12.3481 10.8033C11.9633 10.6308 11.3794 10.6573 10.7691 10.8033C10.5966 11.2677 10.6364 11.8118 10.5966 12.2231L10.7293 19.1231C10.7293 19.3619 10.7823 19.5875 10.9018 19.76C11.1008 19.9591 11.5918 20.0121 11.9766 19.8131Z" fill="#E38E0F"/>
</svg>
