<svg width="21" height="20" viewBox="0 0 21 20" fill="none" xmlns="http://www.w3.org/2000/svg">
<path d="M19.6904 19.1904C19.2433 19.6375 18.5184 19.6375 18.0713 19.1904L12.4124 13.5316C11.8341 13.9942 11.1691 14.3604 10.4174 14.6303C9.66562 14.9002 8.86567 15.0351 8.01754 15.0351C5.91648 15.0351 4.1383 14.3074 2.68298 12.8521C1.22766 11.3968 0.5 9.6186 0.5 7.51754C0.5 5.41648 1.22766 3.6383 2.68298 2.18298C4.1383 0.727659 5.91648 0 8.01754 0C10.1186 0 11.8968 0.727659 13.3521 2.18298C14.8074 3.6383 15.5351 5.41648 15.5351 7.51754C15.5351 8.36567 15.4002 9.16562 15.1303 9.91737C14.8604 10.6691 14.4942 11.3341 14.0316 11.9124L19.6904 17.5713C20.1375 18.0184 20.1375 18.7433 19.6904 19.1904ZM8.01754 12.722C9.46322 12.722 10.692 12.216 11.704 11.204C12.716 10.192 13.222 8.96322 13.222 7.51754C13.222 6.07186 12.716 4.84303 11.704 3.83105C10.692 2.81908 9.46322 2.31309 8.01754 2.31309C6.57186 2.31309 5.34303 2.81908 4.33105 3.83105C3.31908 4.84303 2.81309 6.07186 2.81309 7.51754C2.81309 8.96322 3.31908 10.192 4.33105 11.204C5.34303 12.216 6.57186 12.722 8.01754 12.722Z" fill="url(#paint0_linear_4430_329)"/>
<defs>
<linearGradient id="paint0_linear_4430_329" x1="0.5" y1="10" x2="20.5" y2="10" gradientUnits="userSpaceOnUse">
<stop stop-color="#FFAD00"/>
<stop offset="1" stop-color="#FFB397"/>
</linearGradient>
</defs>
</svg>
