<svg width="25" height="25" viewBox="0 0 25 25" fill="none" xmlns="http://www.w3.org/2000/svg">
<path fill-rule="evenodd" clip-rule="evenodd" d="M12.2453 22.0408C9.51064 22.0408 7.19431 21.0918 5.29636 19.1939C3.3984 17.2959 2.44942 14.9796 2.44942 12.2449C2.44942 9.5102 3.3984 7.19388 5.29636 5.29592C7.19431 3.39796 9.51064 2.44898 12.2453 2.44898C14.98 2.44898 17.2964 3.39796 19.1943 5.29592C21.0923 7.19388 22.0413 9.5102 22.0413 12.2449C22.0413 14.9796 21.0923 17.2959 19.1943 19.1939C17.2964 21.0918 14.98 22.0408 12.2453 22.0408ZM7.34738 12.2449L12.2453 17.1429L13.9596 15.4286L12.0004 13.4694H17.1433V11.0204H12.0004L13.9596 9.06122L12.2453 7.34694L7.34738 12.2449Z" fill="url(#paint0_linear_4269_5953)"/>
<path fill-rule="evenodd" clip-rule="evenodd" d="M17.0208 23.5255C15.5311 24.1684 13.9392 24.4898 12.2453 24.4898C10.5515 24.4898 8.95962 24.1684 7.46983 23.5255C5.98003 22.8827 4.68411 22.0102 3.58207 20.9082C2.48003 19.8061 1.60758 18.5102 0.964724 17.0204C0.321867 15.5306 0.00043869 13.9388 0.00043869 12.2449C0.00043869 10.551 0.321867 8.95918 0.964724 7.46939C1.60758 5.97959 2.48003 4.68367 3.58207 3.58163C4.68411 2.47959 5.98003 1.60714 7.46983 0.964286C8.95962 0.321429 10.5515 0 12.2453 0C13.9392 0 15.5311 0.321429 17.0208 0.964286C18.5106 1.60714 19.8066 2.47959 20.9086 3.58163C22.0106 4.68367 22.8831 5.97959 23.5259 7.46939C24.1688 8.95918 24.4902 10.551 24.4902 12.2449C24.4902 13.9388 24.1688 15.5306 23.5259 17.0204C22.8831 18.5102 22.0106 19.8061 20.9086 20.9082C19.8066 22.0102 18.5106 22.8827 17.0208 23.5255ZM5.29636 19.1939C7.19431 21.0918 9.51064 22.0408 12.2453 22.0408C14.98 22.0408 17.2964 21.0918 19.1943 19.1939C21.0923 17.2959 22.0413 14.9796 22.0413 12.2449C22.0413 9.5102 21.0923 7.19388 19.1943 5.29592C17.2964 3.39796 14.98 2.44898 12.2453 2.44898C9.51064 2.44898 7.19431 3.39796 5.29636 5.29592C3.3984 7.19388 2.44942 9.5102 2.44942 12.2449C2.44942 14.9796 3.3984 17.2959 5.29636 19.1939Z" fill="url(#paint1_linear_4269_5953)"/>
<defs>
<linearGradient id="paint0_linear_4269_5953" x1="24.4902" y1="12.2449" x2="0.00043869" y2="12.2449" gradientUnits="userSpaceOnUse">
<stop stop-color="#FFAD00"/>
<stop offset="1" stop-color="#FFB397"/>
</linearGradient>
<linearGradient id="paint1_linear_4269_5953" x1="24.4902" y1="12.2449" x2="0.00043869" y2="12.2449" gradientUnits="userSpaceOnUse">
<stop stop-color="#FFAD00"/>
<stop offset="1" stop-color="#FFB397"/>
</linearGradient>
</defs>
</svg>
