<svg width="16" height="18" viewBox="0 0 16 18" fill="none" xmlns="http://www.w3.org/2000/svg">
<path d="M14.6365 17.9369C12.8375 17.9369 11.0601 17.5012 9.30431 16.6297C7.54851 15.7582 5.95102 14.5229 4.51184 12.9238C3.07265 11.3247 1.96089 9.5497 1.17653 7.59881C0.392177 5.64792 0 3.67304 0 1.67418C0 1.38634 0.0863509 1.14648 0.259053 0.954584C0.431755 0.762694 0.647632 0.666748 0.906685 0.666748H4.4039C4.60538 0.666748 4.78528 0.742705 4.94359 0.894618C5.1019 1.04653 5.19545 1.22643 5.22423 1.43431L5.78551 4.7924C5.81429 5.04826 5.8071 5.26413 5.76392 5.44003C5.72075 5.61593 5.64159 5.76785 5.52646 5.89578L3.43245 8.24644C3.72028 8.8381 4.06209 9.40978 4.45787 9.96146C4.85364 10.5132 5.28899 11.0448 5.76392 11.5566C6.21007 12.0523 6.6778 12.512 7.16713 12.9358C7.65645 13.3595 8.17455 13.7473 8.72144 14.0991L10.7507 11.8444C10.8802 11.7005 11.0493 11.5925 11.258 11.5206C11.4667 11.4486 11.6718 11.4286 11.8733 11.4606L14.8524 12.1322C15.0538 12.1962 15.2193 12.3121 15.3489 12.48C15.4784 12.6479 15.5432 12.8358 15.5432 13.0437V16.9295C15.5432 17.2173 15.4568 17.4572 15.2841 17.6491C15.1114 17.841 14.8955 17.9369 14.6365 17.9369Z" fill="white"/>
</svg>
