<svg width="60" height="60" viewBox="0 0 60 60" fill="none" xmlns="http://www.w3.org/2000/svg">
<path d="M30 0L32.2296 3.09222L34.9378 0.409161L36.6281 3.82619L39.741 1.62548L40.8458 5.27412L44.2784 3.61579L44.7676 7.39651L48.4264 6.32578L48.2866 10.1355L52.0717 9.68155L51.3068 13.4163L55.115 13.5916L53.7458 17.1494L57.4732 17.9491L55.5371 21.2331L59.082 22.6354L56.6318 25.5559L59.8975 27.5226L57 30L59.8975 32.4774L56.6318 34.4441L59.082 37.3646L55.5371 38.7669L57.4732 42.0509L53.7458 42.8506L55.115 46.4084L51.3068 46.5837L52.0717 50.3184L48.2866 49.8645L48.4264 53.6742L44.7676 52.6035L44.2784 56.3842L40.8458 54.7259L39.741 58.3745L36.6281 56.1738L34.9378 59.5908L32.2296 56.9078L30 60L27.7704 56.9078L25.0622 59.5908L23.3719 56.1738L20.259 58.3745L19.1542 54.7259L15.7216 56.3842L15.2324 52.6035L11.5736 53.6742L11.7134 49.8645L7.92828 50.3184L8.69321 46.5837L4.88501 46.4084L6.25421 42.8506L2.5268 42.0509L4.46293 38.7669L0.917992 37.3646L3.36825 34.4441L0.102465 32.4774L3 30L0.102465 27.5226L3.36825 25.5559L0.917992 22.6354L4.46293 21.2331L2.5268 17.9491L6.25421 17.1494L4.88501 13.5916L8.69321 13.4163L7.92828 9.68155L11.7134 10.1355L11.5736 6.32578L15.2324 7.39651L15.7216 3.61579L19.1542 5.27412L20.259 1.62548L23.3719 3.82619L25.0622 0.409161L27.7704 3.09222L30 0Z" fill="url(#paint0_linear_1_3620)"/>
<path d="M26.5 41.5L44.125 23.875L40.625 20.375L26.5 34.5L19.375 27.375L15.875 30.875L26.5 41.5Z" fill="white"/>
<defs>
<linearGradient id="paint0_linear_1_3620" x1="30" y1="0" x2="30" y2="60" gradientUnits="userSpaceOnUse">
<stop stop-color="#84FF79"/>
<stop offset="1" stop-color="#12D600"/>
</linearGradient>
</defs>
</svg>
