<svg width="19" height="21" viewBox="0 0 19 21" fill="none" xmlns="http://www.w3.org/2000/svg">
<path d="M6.50039 8.91616C5.43952 8.91616 4.42211 8.49474 3.67196 7.74459C2.92182 6.99444 2.50039 5.97703 2.50039 4.91616C2.50039 3.8553 2.92182 2.83788 3.67196 2.08774C4.42211 1.33759 5.43952 0.916163 6.50039 0.916163C7.56126 0.916163 8.57867 1.33759 9.32882 2.08774C10.079 2.83788 10.5004 3.8553 10.5004 4.91616C10.5004 5.97703 10.079 6.99444 9.32882 7.74459C8.57867 8.49474 7.56126 8.91616 6.50039 8.91616ZM6.50039 9.91616C8.65039 9.91616 10.7004 10.3162 12.6004 11.0062L11.5004 16.9162H10.2504L9.50039 20.9162H3.50039L2.75039 16.9162H1.50039L0.400391 11.0062C2.35489 10.291 4.41915 9.92211 6.50039 9.91616ZM14.8104 10.0862C16.1304 10.2662 17.4004 10.5662 18.6104 11.0062L17.5004 16.9162H16.2504L15.5004 20.9162H11.5404L11.9104 18.9162H13.1604L14.8104 10.0862ZM12.5004 0.916163C13.0857 0.911144 13.6651 1.03466 14.1975 1.278C14.7299 1.52133 15.2024 1.87855 15.5816 2.32445C15.9609 2.77034 16.2376 3.29405 16.3924 3.85859C16.5471 4.42314 16.5761 5.01477 16.4772 5.59173C16.3783 6.16869 16.154 6.71691 15.8201 7.19771C15.4862 7.6785 15.0508 8.08015 14.5447 8.3743C14.0386 8.66846 13.4741 8.84795 12.8911 8.90011C12.308 8.95226 11.7207 8.87582 11.1704 8.67616C12.0344 7.61353 12.5061 6.28574 12.5061 4.91616C12.5061 3.54659 12.0344 2.2188 11.1704 1.15616C11.6004 1.01616 12.0304 0.916163 12.5004 0.916163Z" fill="url(#paint0_linear_4506_397)"/>
<defs>
<linearGradient id="paint0_linear_4506_397" x1="0.400391" y1="10.9161" x2="18.6104" y2="10.9161" gradientUnits="userSpaceOnUse">
<stop stop-color="#FFBA85"/>
<stop offset="1" stop-color="#FF97D4"/>
</linearGradient>
</defs>
</svg>
