<svg width="23" height="20" viewBox="0 0 23 20" fill="none" xmlns="http://www.w3.org/2000/svg">
<path d="M9.0966 18.7992V12.795H13.9V18.7992C13.9 19.4596 14.4403 20 15.1008 20H18.7033C19.3638 20 19.9042 19.4596 19.9042 18.7992V10.3933H21.9456C22.498 10.3933 22.7622 9.7088 22.3419 9.34854L12.3028 0.306214C11.8465 -0.102071 11.15 -0.102071 10.6937 0.306214L0.654688 9.34854C0.246403 9.7088 0.498579 10.3933 1.05097 10.3933H3.09239V18.7992C3.09239 19.4596 3.63277 20 4.29324 20H7.89576C8.55622 20 9.0966 19.4596 9.0966 18.7992Z" fill="url(#paint0_linear_4430_326)"/>
<defs>
<linearGradient id="paint0_linear_4430_326" x1="0.453125" y1="10" x2="22.5488" y2="10" gradientUnits="userSpaceOnUse">
<stop stop-color="#FFAD00"/>
<stop offset="1" stop-color="#FFB397"/>
</linearGradient>
</defs>
</svg>
