<svg width="24" height="24" viewBox="0 0 24 24" fill="none" xmlns="http://www.w3.org/2000/svg">
<path d="M19.0485 15.0874L17.3592 13.3981C17.6311 12.9515 17.835 12.4854 17.9709 12C18.1068 11.5146 18.1748 11.0097 18.1748 10.4854H20.5049C20.5049 11.3398 20.3786 12.1505 20.1262 12.9175C19.8738 13.6845 19.5146 14.4078 19.0485 15.0874ZM15.6117 11.5922L13.5146 9.49515V3.49515C13.5146 3.16505 13.4029 2.88835 13.1796 2.66505C12.9563 2.44175 12.6796 2.3301 12.3495 2.3301C12.0194 2.3301 11.7427 2.44175 11.5194 2.66505C11.2961 2.88835 11.1845 3.16505 11.1845 3.49515V7.16505L8.85437 4.83495V3.49515C8.85437 2.52427 9.19417 1.69903 9.87379 1.01942C10.5534 0.339806 11.3786 0 12.3495 0C13.3204 0 14.1456 0.339806 14.8252 1.01942C15.5049 1.69903 15.8447 2.52427 15.8447 3.49515V10.4854C15.8447 10.699 15.8204 10.8932 15.7718 11.068C15.7233 11.2427 15.6699 11.4175 15.6117 11.5922ZM11.1845 22.1359V18.5534C9.16505 18.2816 7.49515 17.3786 6.17476 15.8447C4.85437 14.3107 4.19418 12.5243 4.19418 10.4854H6.52427C6.52427 12.0971 7.08253 13.4709 8.19903 14.6068C9.31553 15.7427 10.699 16.3107 12.3495 16.3107C13.0097 16.3107 13.6359 16.2087 14.2282 16.0049C14.8204 15.801 15.3592 15.5146 15.8447 15.1456L17.5049 16.8058C16.9417 17.2524 16.3252 17.6311 15.6553 17.9417C14.9854 18.2524 14.2718 18.4563 13.5146 18.5534V22.1359H11.1845ZM21.4369 24L0 2.56311L1.63107 0.932039L23.068 22.3689L21.4369 24Z" fill="white"/>
<path d="M13.5146 9.49515V3.49515C13.5146 3.16505 13.4029 2.88835 13.1796 2.66505C12.9563 2.44175 12.6796 2.3301 12.3495 2.3301C12.0194 2.3301 11.7427 2.44175 11.5194 2.66505C11.2961 2.88835 11.1845 3.16505 11.1845 3.49515V7.16505L13.5146 9.49515Z" fill="white"/>
</svg>
