<svg width="21" height="16" viewBox="0 0 21 16" fill="none" xmlns="http://www.w3.org/2000/svg">
<path d="M17.77 15.7285L19.8343 13.7092C20.0138 13.5297 20.1035 13.3202 20.1035 13.0809C20.1035 12.8416 20.0138 12.6322 19.8343 12.4527C18.518 11.0316 16.9997 9.96588 15.2795 9.25536C13.5593 8.54485 11.8167 8.1896 10.0516 8.1896C8.28657 8.1896 6.54768 8.54485 4.83497 9.25536C3.12226 9.96588 1.60027 11.0316 0.26899 12.4527C0.0894909 12.6322 -0.000257492 12.8416 -0.000257492 13.0809C-0.000257492 13.3202 0.0894909 13.5297 0.26899 13.7092L2.33322 15.7285C2.49776 15.893 2.68847 15.9828 2.90537 15.9978C3.12226 16.0127 3.32045 15.9529 3.49995 15.8183L6.10267 13.8438C6.22234 13.754 6.31209 13.6493 6.37192 13.5297C6.43175 13.41 6.46167 13.2754 6.46167 13.1258V10.5679C7.03008 10.3884 7.61345 10.2463 8.21177 10.1416C8.8101 10.0369 9.42339 9.98457 10.0516 9.98457C10.6799 9.98457 11.2932 10.0369 11.8915 10.1416C12.4898 10.2463 13.0732 10.3884 13.6416 10.5679V13.1258C13.6416 13.2754 13.6715 13.41 13.7313 13.5297C13.7912 13.6493 13.8809 13.754 14.0006 13.8438L16.6033 15.8183C16.7828 15.9529 16.981 16.0127 17.1979 15.9978C17.4148 15.9828 17.6055 15.893 17.77 15.7285ZM15.4366 11.1962C15.8704 11.4206 16.2892 11.6786 16.6931 11.9703C17.0969 12.262 17.5158 12.5873 17.9495 12.9463L17.0521 13.8438L15.4366 12.5873V11.1962ZM4.66669 11.2411V12.5873L3.05121 13.8438L2.15372 12.9912C2.58751 12.6023 3.00633 12.2657 3.4102 11.9815C3.81407 11.6973 4.2329 11.4505 4.66669 11.2411ZM10.0965 7.60623L14.5391 3.16365V5.49713H16.3341V0.112186H10.9491V1.90717H13.2826L10.1189 5.07082L5.04812 0L3.7692 1.27892L10.0965 7.60623Z" fill="#FF393F"/>
</svg>
