<svg width="35" height="35" viewBox="0 0 35 35" fill="none" xmlns="http://www.w3.org/2000/svg">
<rect width="35" height="35" rx="17.5" fill="white" fill-opacity="0.5"/>
<path d="M12.4444 22.5556H13.4736L20.5333 15.4958L19.5042 14.4667L12.4444 21.5264V22.5556ZM11 24V20.9306L20.5333 11.4153C20.6778 11.2829 20.8373 11.1806 21.0118 11.1083C21.1863 11.0361 21.3699 11 21.5625 11C21.7551 11 21.9417 11.0361 22.1222 11.1083C22.3028 11.1806 22.4593 11.2889 22.5917 11.4333L23.5847 12.4444C23.7292 12.5769 23.8345 12.7333 23.9007 12.9139C23.9669 13.0944 24 13.275 24 13.4556C24 13.6481 23.9669 13.8317 23.9007 14.0063C23.8345 14.1808 23.7292 14.3403 23.5847 14.4847L14.0694 24H11ZM20.0097 14.9903L19.5042 14.4667L20.5333 15.4958L20.0097 14.9903Z" fill="black"/>
</svg>
