<svg width="12" height="17" viewBox="0 0 12 17" fill="none" xmlns="http://www.w3.org/2000/svg">
<path d="M6 4.20801V6.45801L9 3.45801L6 0.458008V2.70801C2.685 2.70801 0 5.39301 0 8.70801C0 9.88551 0.345 10.9805 0.93 11.903L2.025 10.808C1.67884 10.1623 1.49845 9.44068 1.5 8.70801C1.5 6.22551 3.5175 4.20801 6 4.20801ZM11.07 5.51301L9.975 6.60801C10.305 7.23801 10.5 7.95051 10.5 8.70801C10.5 11.1905 8.4825 13.208 6 13.208V10.958L3 13.958L6 16.958V14.708C9.315 14.708 12 12.023 12 8.70801C12 7.53051 11.655 6.43551 11.07 5.51301Z" fill="#FF7B98"/>
</svg>
