<svg width="23" height="22" viewBox="0 0 23 22" fill="none" xmlns="http://www.w3.org/2000/svg">
<path d="M13.8286 22V19.4229C15.7143 18.8781 17.2333 17.8305 18.3857 16.28C19.5381 14.7295 20.1143 12.9695 20.1143 11C20.1143 9.03048 19.5381 7.27048 18.3857 5.72C17.2333 4.16952 15.7143 3.1219 13.8286 2.57714V0C16.4267 0.586667 18.5429 1.90143 20.1771 3.94429C21.8114 5.98714 22.6286 8.33905 22.6286 11C22.6286 13.661 21.8114 16.0129 20.1771 18.0557C18.5429 20.0986 16.4267 21.4133 13.8286 22ZM0 14.8029V7.26H5.02857L11.3143 0.974286V21.0886L5.02857 14.8029H0ZM13.8286 16.06V5.94C14.8133 6.40095 15.5833 7.09238 16.1386 8.01429C16.6938 8.93619 16.9714 9.94191 16.9714 11.0314C16.9714 12.1 16.6938 13.09 16.1386 14.0014C15.5833 14.9129 14.8133 15.599 13.8286 16.06ZM8.8 7.07143L6.09714 9.77429H2.51429V12.2886H6.09714L8.8 14.9914V7.07143Z" fill="white"/>
<path d="M8.8 7.07143L6.09714 9.77429H2.51429V12.2886H6.09714L8.8 14.9914V7.07143Z" fill="white"/>
</svg>
