<svg width="17" height="22" viewBox="0 0 17 22" fill="none" xmlns="http://www.w3.org/2000/svg">
<path d="M8.10526 13.8947C7.14035 13.8947 6.32017 13.557 5.64474 12.8816C4.9693 12.2061 4.63158 11.386 4.63158 10.4211V3.47368C4.63158 2.50877 4.9693 1.6886 5.64474 1.01316C6.32017 0.337719 7.14035 0 8.10526 0C9.07018 0 9.89035 0.337719 10.5658 1.01316C11.2412 1.6886 11.5789 2.50877 11.5789 3.47368V10.4211C11.5789 11.386 11.2412 12.2061 10.5658 12.8816C9.89035 13.557 9.07018 13.8947 8.10526 13.8947ZM6.94737 22V18.4395C4.94035 18.1693 3.2807 17.2719 1.96842 15.7474C0.65614 14.2228 0 12.4474 0 10.4211H2.31579C2.31579 12.0228 2.88026 13.3882 4.00921 14.5171C5.13816 15.6461 6.50351 16.2105 8.10526 16.2105C9.70702 16.2105 11.0724 15.6461 12.2013 14.5171C13.3303 13.3882 13.8947 12.0228 13.8947 10.4211H16.2105C16.2105 12.4474 15.5544 14.2228 14.2421 15.7474C12.9298 17.2719 11.2702 18.1693 9.26316 18.4395V22H6.94737ZM8.10526 11.5789C8.43333 11.5789 8.70833 11.468 8.93026 11.2461C9.15219 11.0241 9.26316 10.7491 9.26316 10.4211V3.47368C9.26316 3.14561 9.15219 2.87061 8.93026 2.64868C8.70833 2.42675 8.43333 2.31579 8.10526 2.31579C7.77719 2.31579 7.50219 2.42675 7.28026 2.64868C7.05833 2.87061 6.94737 3.14561 6.94737 3.47368V10.4211C6.94737 10.7491 7.05833 11.0241 7.28026 11.2461C7.50219 11.468 7.77719 11.5789 8.10526 11.5789Z" fill="white"/>
<path d="M8.10526 11.5789C8.43333 11.5789 8.70833 11.468 8.93026 11.2461C9.15219 11.0241 9.26316 10.7491 9.26316 10.4211V3.47368C9.26316 3.14561 9.15219 2.87061 8.93026 2.64868C8.70833 2.42675 8.43333 2.31579 8.10526 2.31579C7.77719 2.31579 7.50219 2.42675 7.28026 2.64868C7.05833 2.87061 6.94737 3.14561 6.94737 3.47368V10.4211C6.94737 10.7491 7.05833 11.0241 7.28026 11.2461C7.50219 11.468 7.77719 11.5789 8.10526 11.5789Z" fill="white"/>
</svg>
